<svg width="156" height="216" viewBox="0 0 156 216" fill="none" xmlns="http://www.w3.org/2000/svg">
<g opacity="0.1">
<path d="M102 72C102 57.6783 96.3107 43.9432 86.1838 33.8162C76.0568 23.6893 62.3217 18 48 18C33.6783 18 19.9432 23.6893 9.81624 33.8162C-0.310729 43.9432 -6 57.6783 -6 72C-6 135 -33 153 -33 153H129C129 153 102 135 102 72Z" stroke="#FFC077" stroke-width="12" stroke-linecap="round" stroke-linejoin="round"/>
<path d="M63.5699 189C61.9876 191.728 59.7165 193.992 56.984 195.566C54.2514 197.14 51.1533 197.968 47.9999 197.968C44.8465 197.968 41.7484 197.14 39.0159 195.566C36.2833 193.992 34.0122 191.728 32.4299 189" stroke="#FFC077" stroke-width="12" stroke-linecap="round" stroke-linejoin="round"/>
</g>
</svg>
