<svg width="160" height="216" viewBox="0 0 160 216" fill="none" xmlns="http://www.w3.org/2000/svg">
<g opacity="0.1">
<path d="M106 27C98.8392 27 91.9716 29.8446 86.9081 34.9081C81.8446 39.9716 79 46.8392 79 54V162C79 169.161 81.8446 176.028 86.9081 181.092C91.9716 186.155 98.8392 189 106 189C113.161 189 120.028 186.155 125.092 181.092C130.155 176.028 133 169.161 133 162C133 154.839 130.155 147.972 125.092 142.908C120.028 137.845 113.161 135 106 135H-2C-9.16085 135 -16.0284 137.845 -21.0919 142.908C-26.1554 147.972 -29 154.839 -29 162C-29 169.161 -26.1554 176.028 -21.0919 181.092C-16.0284 186.155 -9.16085 189 -2 189C5.16085 189 12.0284 186.155 17.0919 181.092C22.1554 176.028 25 169.161 25 162V54C25 46.8392 22.1554 39.9716 17.0919 34.9081C12.0284 29.8446 5.16085 27 -2 27C-9.16085 27 -16.0284 29.8446 -21.0919 34.9081C-26.1554 39.9716 -29 46.8392 -29 54C-29 61.1608 -26.1554 68.0284 -21.0919 73.0919C-16.0284 78.1554 -9.16085 81 -2 81H106C113.161 81 120.028 78.1554 125.092 73.0919C130.155 68.0284 133 61.1608 133 54C133 46.8392 130.155 39.9716 125.092 34.9081C120.028 29.8446 113.161 27 106 27Z" stroke="#CA86FF" stroke-width="12" stroke-linecap="round" stroke-linejoin="round"/>
</g>
</svg>
