<svg width="464" height="216" viewBox="0 0 464 216" fill="none" xmlns="http://www.w3.org/2000/svg">
<g clip-path="url(#clip0_476_634)">
<path opacity="0.15" d="M436.498 -389.25C662.935 -389.25 846.498 -205.687 846.498 20.75C846.498 247.187 662.935 430.75 436.498 430.75C210.061 430.75 26.498 247.187 26.498 20.75C26.498 -205.687 210.061 -389.25 436.498 -389.25Z" stroke="#3F3F46"/>
<path opacity="0.7" d="M437.134 -45.8289C474.181 -45.8289 504.213 -15.7966 504.213 21.2501C504.213 58.2968 474.181 88.3291 437.134 88.3291C400.087 88.3291 370.055 58.2968 370.055 21.2501C370.055 -15.7966 400.087 -45.8289 437.134 -45.8289Z" stroke="#52525B"/>
<path opacity="0.6" d="M437.129 -131.301C520.829 -131.301 588.682 -63.4485 588.682 20.2519C588.682 103.952 520.829 171.805 437.129 171.805C353.429 171.805 285.576 103.952 285.576 20.2519C285.576 -63.4485 353.429 -131.301 437.129 -131.301Z" stroke="#52525B"/>
<path opacity="0.5" d="M437.128 -214.775C567.482 -214.775 673.154 -109.103 673.154 21.251C673.154 151.605 567.482 257.277 437.128 257.277C306.774 257.277 201.102 151.605 201.102 21.251C201.102 -109.103 306.774 -214.775 437.128 -214.775Z" stroke="#3F3F46"/>
<path opacity="0.3" d="M437.127 -299.25C614.134 -299.25 757.627 -155.757 757.627 21.25C757.627 198.257 614.134 341.75 437.127 341.75C260.12 341.75 116.627 198.257 116.627 21.25C116.627 -155.757 260.12 -299.25 437.127 -299.25Z" stroke="#3F3F46"/>
<path d="M1.49691 80.816C1.49691 64.7633 14.5102 51.75 30.5629 51.75C46.6156 51.75 59.6289 64.7633 59.6289 80.816C59.6289 96.8687 46.6156 109.882 30.5629 109.882C14.5102 109.882 1.49691 96.8687 1.49691 80.816Z" fill="#202023"/>
<path d="M30.563 69.438C27.7927 69.4381 25.1129 70.4239 23.003 72.219C20.8931 74.0141 19.4908 76.5014 19.047 79.2359C18.6032 81.9703 19.1468 84.7735 20.5807 87.1437C22.0145 89.514 24.245 91.2968 26.873 92.173C27.457 92.275 27.676 91.925 27.676 91.619C27.676 91.342 27.661 90.423 27.661 89.446C24.73 89.986 23.971 88.731 23.738 88.075C23.479 87.4367 23.0685 86.8711 22.542 86.427C22.134 86.208 21.551 85.669 22.528 85.654C22.9011 85.6944 23.259 85.8242 23.5714 86.0324C23.8837 86.2406 24.1411 86.5211 24.322 86.85C24.4816 87.1365 24.6962 87.3886 24.9534 87.5921C25.2106 87.7955 25.5053 87.9463 25.8208 88.0357C26.1363 88.1252 26.4664 88.1515 26.7921 88.1133C27.1178 88.0751 27.4327 87.9731 27.719 87.813C27.769 87.219 28.034 86.665 28.463 86.253C25.867 85.96 23.155 84.954 23.155 80.492C23.1384 79.3323 23.5664 78.2102 24.351 77.356C23.9943 76.3486 24.0358 75.2429 24.467 74.265C24.467 74.265 25.444 73.958 27.676 75.46C29.5849 74.935 31.6001 74.935 33.509 75.46C35.74 73.944 36.717 74.265 36.717 74.265C37.149 75.243 37.191 76.349 36.834 77.356C37.621 78.2087 38.0493 79.3318 38.03 80.492C38.03 84.969 35.303 85.96 32.707 86.252C32.9854 86.5343 33.1999 86.8732 33.3357 87.2458C33.4715 87.6183 33.5255 88.0157 33.494 88.411C33.494 89.971 33.48 91.225 33.48 91.619C33.48 91.925 33.699 92.289 34.282 92.173C36.9057 91.2898 39.13 89.5029 40.558 87.1313C41.986 84.7596 42.5247 81.9577 42.0778 79.2257C41.6309 76.4936 40.2276 74.0093 38.1184 72.2163C36.0091 70.4233 33.3313 69.4382 30.563 69.437V69.438Z" fill="white"/>
<path d="M175.499 44.816C175.499 28.7633 188.512 15.75 204.565 15.75C220.618 15.75 233.631 28.7633 233.631 44.816C233.631 60.8687 220.618 73.882 204.565 73.882C188.512 73.882 175.499 60.8687 175.499 44.816Z" fill="#202023"/>
<path d="M175.499 44.816C175.499 28.7633 188.512 15.75 204.565 15.75C220.618 15.75 233.631 28.7633 233.631 44.816C233.631 60.8687 220.618 73.882 204.565 73.882C188.512 73.882 175.499 60.8687 175.499 44.816Z" stroke="#27272A"/>
<path d="M380.411 167.685C380.411 154.418 391.166 143.663 404.433 143.663C417.699 143.663 428.454 154.418 428.454 167.685C428.454 180.951 417.699 191.706 404.433 191.706C391.166 191.706 380.411 180.951 380.411 167.685Z" fill="#202023"/>
<path opacity="0.5" d="M398.167 156.381L401.038 161.569L400.562 162.397L398.03 158.111C397.299 156.917 396.183 157.536 394.787 159.951L394.996 159.592L396.405 157.145C396.737 156.567 397.232 156.099 397.828 155.801L398.16 156.381H398.167Z" fill="url(#paint0_linear_476_634)"/>
<path d="M392.431 45.6289H392.432C404.613 45.6289 414.487 55.5033 414.487 67.6839V67.6849C414.487 79.8655 404.613 89.7399 392.432 89.7399H392.431C380.25 89.7399 370.376 79.8655 370.376 67.6849V67.6839C370.376 55.5033 380.25 45.6289 392.431 45.6289Z" fill="#202023"/>
<path d="M124.499 162.816C124.499 146.763 137.512 133.75 153.565 133.75C169.618 133.75 182.631 146.763 182.631 162.816C182.631 178.869 169.618 191.882 153.565 191.882C137.512 191.882 124.499 178.869 124.499 162.816Z" fill="#202023"/>
<path d="M138.856 163.025L143.963 167.398C144.088 167.529 144.161 167.703 144.169 167.886C144.177 168.069 144.118 168.248 144.004 168.389C143.89 168.53 143.73 168.623 143.553 168.65C143.377 168.677 143.197 168.636 143.048 168.535L137.266 163.593C137.183 163.525 137.116 163.438 137.07 163.34C137.024 163.242 137 163.134 137 163.025C137 162.916 137.024 162.808 137.07 162.71C137.116 162.611 137.183 162.525 137.266 162.456L143.048 157.515C143.176 157.403 143.338 157.342 143.506 157.342C143.612 157.341 143.717 157.365 143.813 157.412C143.909 157.459 143.994 157.528 144.06 157.613C144.121 157.688 144.167 157.774 144.195 157.866C144.224 157.959 144.233 158.056 144.225 158.153C144.216 158.25 144.188 158.344 144.143 158.429C144.098 158.515 144.037 158.59 143.963 158.651L138.856 163.025Z" fill="white"/>
<path d="M169.128 163.025L164.021 167.398C163.896 167.529 163.823 167.703 163.815 167.886C163.808 168.069 163.866 168.248 163.98 168.389C164.094 168.53 164.254 168.623 164.431 168.65C164.607 168.677 164.787 168.636 164.936 168.535L170.718 163.593C170.801 163.525 170.868 163.438 170.914 163.34C170.96 163.242 170.984 163.134 170.984 163.025C170.984 162.916 170.96 162.808 170.914 162.71C170.868 162.611 170.801 162.525 170.718 162.456L164.936 157.515C164.808 157.403 164.646 157.342 164.478 157.342C164.372 157.341 164.267 157.365 164.171 157.412C164.075 157.459 163.99 157.528 163.924 157.613C163.863 157.688 163.817 157.774 163.789 157.866C163.761 157.959 163.751 158.056 163.76 158.153C163.769 158.25 163.796 158.344 163.841 158.429C163.886 158.515 163.947 158.59 164.021 158.651L169.128 163.025Z" fill="white"/>
<path opacity="0.2" d="M154.602 169.25V159.25H150.941V166.75H147.279V169.25C147.279 169.416 147.343 169.575 147.458 169.692C147.572 169.809 147.727 169.875 147.889 169.875H150.33C150.492 169.875 150.648 169.809 150.762 169.692C150.876 169.575 150.941 169.416 150.941 169.25C150.941 169.416 151.005 169.575 151.119 169.692C151.234 169.809 151.389 169.875 151.551 169.875H153.992C154.154 169.875 154.309 169.809 154.424 169.692C154.538 169.575 154.602 169.416 154.602 169.25ZM161.46 157.562L160.827 159.976L157.288 159L157.921 156.586C157.964 156.427 158.066 156.291 158.206 156.209C158.346 156.127 158.512 156.105 158.668 156.148L161.025 156.797C161.103 156.818 161.176 156.854 161.24 156.904C161.304 156.954 161.358 157.016 161.398 157.087C161.439 157.158 161.465 157.237 161.475 157.318C161.486 157.4 161.481 157.483 161.46 157.562ZM158.302 169.633C158.259 169.792 158.157 169.928 158.017 170.012C157.877 170.095 157.711 170.119 157.555 170.078L155.197 169.43C155.041 169.386 154.909 169.281 154.827 169.138C154.746 168.995 154.723 168.824 154.763 168.664L155.396 166.25L158.935 167.219L158.302 169.633Z" fill="white"/>
<path d="M162.048 157.719L158.889 169.797C158.805 170.117 158.601 170.39 158.32 170.555C158.04 170.721 157.707 170.766 157.394 170.68L155.037 170.031L154.961 170.008C154.847 170.161 154.701 170.284 154.532 170.37C154.364 170.455 154.179 170.5 153.992 170.5H151.551C151.336 170.499 151.125 170.44 150.941 170.328C150.756 170.44 150.545 170.499 150.33 170.5H147.889C147.566 170.5 147.255 170.368 147.026 170.134C146.797 169.899 146.669 169.582 146.669 169.25V156.75C146.669 156.418 146.797 156.101 147.026 155.866C147.255 155.632 147.566 155.5 147.889 155.5H150.33C150.545 155.501 150.756 155.56 150.941 155.672C151.125 155.56 151.336 155.501 151.551 155.5H153.992C154.316 155.5 154.626 155.632 154.855 155.866C155.084 156.101 155.213 156.418 155.213 156.75V164.531L157.333 156.43C157.402 156.163 157.556 155.927 157.77 155.759C157.984 155.59 158.246 155.499 158.516 155.5C158.621 155.502 158.726 155.515 158.828 155.539L161.186 156.188C161.498 156.274 161.765 156.483 161.926 156.77C162.088 157.057 162.131 157.399 162.048 157.719ZM156.143 165.805L158.5 166.453L160.079 160.414L157.722 159.766L156.143 165.805ZM157.707 169.469L158.188 167.664L155.83 167.016L155.35 168.82L157.707 169.469ZM153.992 169.25V159.875H151.551V169.25H153.992ZM150.33 169.25V167.375H147.889V169.25H150.33ZM147.889 156.75V166.125H150.33V156.75H147.889ZM153.992 156.75H151.551V158.625H153.992V156.75ZM160.873 157.398L158.516 156.75L158.035 158.563L160.4 159.211L160.873 157.398Z" fill="white"/>
<path d="M405.708 178H416.117C416.448 178 416.772 177.912 417.059 177.745C417.345 177.579 417.583 177.339 417.748 177.05C417.913 176.761 418 176.433 418 176.1C418 175.766 417.913 175.439 417.747 175.15L410.757 162.936C410.592 162.647 410.354 162.407 410.068 162.24C409.782 162.074 409.457 161.986 409.126 161.986C408.796 161.986 408.471 162.074 408.185 162.24C407.899 162.407 407.661 162.647 407.496 162.936L405.708 166.061L402.214 159.95C402.048 159.661 401.81 159.421 401.524 159.254C401.238 159.088 400.913 159 400.582 159C400.252 159 399.927 159.088 399.641 159.254C399.354 159.421 399.117 159.661 398.951 159.95L390.253 175.15C390.087 175.439 390 175.766 390 176.1C390 176.433 390.087 176.761 390.252 177.05C390.417 177.339 390.655 177.579 390.941 177.745C391.228 177.912 391.552 178 391.883 178H398.417C401.005 178 402.915 176.853 404.228 174.615L407.418 169.043L409.126 166.061L414.253 175.018H407.418L405.708 178ZM398.31 175.015L393.75 175.014L400.586 163.072L403.996 169.043L401.713 173.034C400.84 174.486 399.849 175.015 398.31 175.015Z" fill="#00DC82"/>
<path d="M210.788 43.9431C208.102 41.9711 205.233 38.8162 204.507 35.3398C204.452 36.111 204.453 36.8839 204.591 37.6869C204.838 39.1267 205.389 40.4923 206.162 41.7242C206.954 42.9852 207.969 44.0433 209.072 45.0271C210.109 45.9517 211.084 46.9008 211.306 48.341C212.442 48.6156 213.503 49.15 214.322 50.0406C215.145 50.9347 215.564 52.0434 215.555 53.1684C215.961 52.1872 216.131 51.1292 215.823 49.8825C215.152 47.1688 212.907 45.498 210.788 43.9431Z" fill="white"/>
<path d="M205.045 40.9726C204.181 39.2276 203.573 36.8677 203.96 34.8184C203.291 36.7291 203.06 38.7881 203.3 40.8168C203.616 43.4827 204.816 46.9664 207.346 48.2578C207.779 48.2016 208.209 48.1517 208.629 48.1264C209.293 48.0865 209.973 48.1098 210.637 48.2112C210.242 46.5264 208.628 45.5706 207.487 44.3931C206.512 43.3864 205.67 42.2337 205.045 40.9726Z" fill="white"/>
<path d="M201.687 30.3625C201.291 29.218 200.643 28.1804 199.833 27.2857C199.749 27.1928 199.662 27.0973 199.573 27C199.664 27.1395 199.752 27.2793 199.836 27.4165C200.404 28.3417 200.878 29.3333 201.18 30.3809C201.785 32.4856 201.449 34.5763 201.027 36.6793C200.543 39.0913 200.174 41.5149 201.201 43.8491C202.068 45.817 203.667 47.2266 205.65 47.876C203.865 46.183 202.959 43.4161 202.662 41.0871C202.498 39.7964 202.512 38.4963 202.695 37.2242C202.613 34.9022 202.462 32.6018 201.687 30.3625Z" fill="white"/>
<path d="M198.69 34.419C197.975 36.2879 197.189 38.1863 197.065 40.2098C196.997 41.32 197.124 42.4631 197.539 43.4996C197.654 43.7861 197.794 44.0512 197.949 44.3039C199.136 45.4642 200.098 46.8732 201.495 47.7745C202.723 48.567 204.098 48.6168 205.49 48.4871C201.771 47.3616 199.623 43.5523 199.929 39.6687C200.109 37.3793 200.937 35.1762 200.949 32.8682C200.958 31.0422 200.341 29.4596 199.474 27.9805C199.592 28.3509 199.683 28.7304 199.739 29.1189C200.007 30.9781 199.352 32.6896 198.7 34.3932L198.69 34.419Z" fill="white"/>
<path d="M206.406 57.9297C208.511 58.1306 210.895 57.9489 212.715 56.7639C214.757 55.435 215.64 52.7472 213.996 50.7229C210.828 46.8224 205.751 50.4622 201.886 48.7696C200 47.9434 198.934 46.074 197.454 44.734C196.411 43.7893 195.182 43.1081 193.867 42.6902C194.257 42.8929 194.636 43.1185 195 43.3743C196.319 44.3001 197.235 45.5168 198.179 46.8073C199.363 48.4274 200.884 49.493 202.874 49.8142C204.567 50.088 206.464 49.8107 208.052 50.5659C209.149 51.0875 210.022 52.3421 209.582 53.5924C209.136 54.8592 207.636 55.5357 206.427 55.7667C203.233 56.3771 200.328 54.4326 198.472 51.9583C197.227 50.298 196.41 48.4094 195.513 46.549C195.038 45.562 194.447 44.7186 193.616 44.0074C193.418 43.8373 193.211 43.6792 193 43.5271C194.776 45.6423 195.578 48.5844 196.725 51.1108C198.539 55.1085 202.084 57.517 206.406 57.9297Z" fill="white"/>
<path d="M195.31 44.3011C194.609 43.7059 193.833 43.234 193.006 42.8706C193.514 43.2023 193.992 43.5815 194.422 43.9884C195.566 45.0741 196.127 46.4944 196.803 47.8932C198.19 50.7624 200.07 53.8092 203.241 54.8652C204.749 55.3673 206.527 55.3268 207.906 54.4709C208.717 53.9677 209.312 53.0907 208.794 52.1428C208.286 51.2152 207.21 50.9246 206.245 50.8017C204.717 50.6074 203.162 50.6826 201.672 50.2294C200.44 49.8546 199.321 49.1355 198.46 48.1701C197.341 46.9176 196.606 45.4023 195.31 44.3011Z" fill="white"/>
<path d="M213.587 56.9766C214.513 57.7574 216.036 57.1691 216.677 56.2398C217.358 55.2522 217.119 53.9361 216.266 53.1685C215.948 54.0582 215.441 54.8946 214.818 55.611C214.481 56.1439 214.062 56.5962 213.587 56.9766Z" fill="white"/>
<path d="M399.3 60H404.375L391.688 81.8859L379 60H388.706L391.688 65.075L394.606 60H399.3Z" fill="#41B883"/>
<path d="M379 60L391.688 81.8859L404.375 60H399.3L391.688 73.1316L384.012 60H379Z" fill="#41B883"/>
<path d="M384.011 60L391.687 73.195L399.3 60H394.606L391.687 65.075L388.706 60H384.011Z" fill="#35495E"/>
</g>
<defs>
<linearGradient id="paint0_linear_476_634" x1="397.412" y1="156.375" x2="400.253" y2="160.937" gradientUnits="userSpaceOnUse">
<stop stop-color="#EB6F07"/>
<stop offset="1" stop-color="#EB720A" stop-opacity="0"/>
</linearGradient>
<clipPath id="clip0_476_634">
<rect width="464" height="216" fill="white"/>
</clipPath>
</defs>
</svg>
