<svg width="223" height="285" viewBox="0 0 223 285" fill="none" xmlns="http://www.w3.org/2000/svg">
  <path
    d="M164.787 155.768C139.899 137.639 113.322 108.634 106.6 76.6738C106.093 83.7637 106.096 90.8696 107.374 98.2514C109.662 111.489 114.771 124.043 121.934 135.369C129.267 146.962 138.674 156.689 148.887 165.734C158.489 174.234 167.528 182.96 169.578 196.2C180.11 198.725 189.93 203.638 197.522 211.826C205.146 220.045 209.025 230.238 208.948 240.581C212.706 231.561 214.281 221.834 211.425 210.372C205.208 185.423 184.413 170.063 164.787 155.768Z"
    fill="#f2f7f9" />
  <path
    d="M111.584 128.458C103.581 112.415 97.943 90.7197 101.531 71.8785C95.3323 89.4452 93.1887 108.375 95.415 127.026C98.3408 151.535 109.462 183.563 132.9 195.434C136.912 194.918 140.887 194.46 144.784 194.227C150.935 193.86 157.229 194.074 163.388 195.006C159.728 179.517 144.771 170.73 134.205 159.905C125.174 150.649 117.369 140.052 111.584 128.458Z"
    fill="#f2f7f9" />
  <path
    d="M80.474 30.9137C76.8062 20.3914 70.7998 10.8515 63.2986 2.62643C62.5191 1.77231 61.7183 0.894287 60.8961 0C61.7343 1.2825 62.5458 2.56757 63.3253 3.82864C68.5895 12.3349 72.9835 21.4516 75.7757 31.0824C81.387 50.4322 78.2744 69.6536 74.3636 88.9874C69.8735 111.162 66.4565 133.444 75.9759 154.903C84.0003 172.995 98.8133 185.954 117.185 191.924C100.647 176.36 92.2543 150.922 89.5075 129.51C87.9859 117.644 88.1194 105.692 89.8172 93.9968C89.0537 72.6496 87.6549 51.5006 80.474 30.9137Z"
    fill="#f2f7f9" />
  <path
    d="M52.7114 68.2078C46.0858 85.389 38.8035 102.843 37.6556 121.446C37.0283 131.652 38.2002 142.161 42.0496 151.69C43.112 154.325 44.4067 156.761 45.8429 159.086C56.8411 169.752 65.7545 182.706 78.6935 190.992C90.0708 198.278 102.812 198.736 115.703 197.544C81.2508 187.196 61.3499 152.175 64.1849 116.471C65.8586 95.4239 73.528 75.1691 73.6348 53.9504C73.7176 37.1628 68.0049 22.6136 59.9778 9.01492C61.0669 12.4206 61.9131 15.9093 62.431 19.481C64.9118 36.5732 58.8433 52.3084 52.8029 67.9708L52.7114 68.2078Z"
    fill="#f2f7f9" />
  <path
    d="M124.189 284.352C143.69 286.2 165.774 284.529 182.637 273.634C201.551 261.417 209.73 236.707 194.501 218.096C165.158 182.237 118.124 215.7 82.3186 200.139C64.8442 192.543 54.9698 175.356 41.2647 163.037C31.5986 154.352 20.2159 148.089 8.03512 144.247C11.6416 146.111 15.1519 148.186 18.5235 150.536C30.7443 159.048 39.2332 170.234 47.9731 182.098C58.9473 196.993 73.0342 206.789 91.4695 209.743C107.15 212.259 124.731 209.711 139.44 216.653C149.597 221.448 157.689 232.983 153.61 244.477C149.475 256.124 135.588 262.344 124.384 264.467C94.7931 270.079 67.8847 252.201 50.6933 229.454C39.1585 214.19 31.5906 196.827 23.2832 179.723C18.8785 170.649 13.4061 162.895 5.70733 156.357C3.86806 154.794 1.95406 153.34 0 151.942C16.4546 171.388 23.8865 198.436 34.5083 221.663C51.3153 258.416 84.1472 280.558 124.189 284.352Z"
    fill="#f2f7f9" />
  <path
    d="M21.3985 159.059C14.909 153.586 7.7121 149.248 0.0587166 145.907C4.765 148.957 9.19367 152.443 13.1685 156.183C23.7743 166.165 28.9638 179.222 35.2264 192.082C48.0799 218.46 65.4983 246.472 94.8732 256.18C108.84 260.796 125.31 260.424 138.087 252.555C145.596 247.928 151.114 239.866 146.309 231.151C141.608 222.624 131.634 219.952 122.694 218.822C108.538 217.036 94.1417 217.727 80.3352 213.561C68.9232 210.115 58.5602 203.504 50.5785 194.628C40.2156 183.113 33.4085 169.182 21.3985 159.059Z"
    fill="#f2f7f9" />
  <path
    d="M190.71 275.592C199.295 282.77 213.398 277.361 219.335 268.818C225.648 259.738 223.435 247.639 215.533 240.581C212.581 248.761 207.885 256.451 202.117 263.037C198.996 267.937 195.115 272.095 190.71 275.592Z"
    fill="#f2f7f9" />
</svg>