<svg width="1050" height="340" viewBox="0 0 1050 340" fill="none" xmlns="http://www.w3.org/2000/svg">
<path d="M550.954 213.006C550.954 238.978 545.929 261.577 535.878 280.804C525.828 299.693 511.589 314.365 493.163 324.821C475.072 334.94 453.631 340 428.839 340C404.048 340 382.439 334.94 364.013 324.821C345.587 314.365 331.181 299.693 320.795 280.804C310.745 261.914 305.719 239.315 305.719 213.006C305.719 187.034 310.913 164.603 321.298 145.714C331.683 126.825 346.09 112.321 364.516 102.202C382.941 91.7462 404.383 86.5179 428.839 86.5179C453.296 86.5179 474.57 91.7462 492.661 102.202C511.087 112.321 525.325 126.994 535.376 146.22C545.761 165.109 550.954 187.371 550.954 213.006ZM428.839 136.101C410.414 136.101 395.84 142.847 385.119 156.339C374.734 169.831 369.541 188.72 369.541 213.006C369.541 237.966 374.734 257.193 385.119 270.685C395.505 283.839 410.078 290.417 428.839 290.417C447.265 290.417 461.672 283.67 472.057 270.179C482.442 256.687 487.635 237.629 487.635 213.006C487.635 189.057 482.442 170.337 472.057 156.845C461.672 143.016 447.265 136.101 428.839 136.101ZM679.772 232.232L636.554 203.393L750.628 89.0476C763.022 89.3847 772.909 92.4204 780.278 98.1548C787.646 103.551 791.333 110.635 791.333 119.405C791.333 126.488 788.821 132.897 783.795 138.631C779.103 144.365 771.904 151.449 762.186 159.881L679.772 232.232ZM638.062 212.5L685.802 189.732L802.891 300.536C801.886 311.667 798.538 320.437 792.841 326.845C787.143 333.254 779.273 336.458 769.222 336.458C761.514 336.458 754.479 334.603 748.116 330.893C741.752 326.845 735.22 320.774 728.517 312.679L638.062 212.5ZM589.818 198.333L651.63 201.369V331.905C648.948 332.917 645.097 333.76 640.072 334.435C635.046 335.446 629.519 335.952 623.488 335.952C612.096 335.952 603.553 333.929 597.859 329.881C592.498 325.496 589.818 317.907 589.818 307.113V198.333ZM651.63 233.244L589.818 230.208V4.04762C592.498 3.3728 596.351 2.52975 601.376 1.51784C606.402 0.505939 611.929 0 617.96 0C629.688 0 638.231 2.19268 643.589 6.57739C648.948 10.625 651.63 18.0454 651.63 28.8393V233.244ZM829.909 241.339V201.369H891.72V240.327C891.72 258.205 896.243 271.022 905.288 278.78C914.667 286.538 927.569 290.417 943.983 290.417C954.706 290.417 963.751 289.405 971.12 287.381C978.488 285.357 984.016 283.164 987.703 280.804V201.369H1049.51V285.863C1049.51 293.621 1048.18 300.199 1045.49 305.595C1043.15 310.655 1038.46 315.377 1031.42 319.762C1021.71 325.496 1009.31 330.218 994.236 333.929C979.493 337.976 962.577 340 943.481 340C920.364 340 900.263 336.627 883.177 329.881C866.091 323.135 852.856 312.51 843.477 298.006C834.432 283.164 829.909 264.276 829.909 241.339ZM1049.51 225.655H987.703V94.1071C990.386 93.4323 994.236 92.7581 999.261 92.0833C1004.62 91.0714 1010.15 90.5655 1015.84 90.5655C1027.57 90.5655 1036.12 92.5893 1041.47 96.6369C1046.83 100.685 1049.51 108.274 1049.51 119.405V225.655ZM891.72 225.655H829.909V94.1071C832.591 93.4323 836.442 92.7581 841.467 92.0833C846.492 91.0714 852.02 90.5655 858.05 90.5655C869.778 90.5655 878.321 92.5893 883.679 96.6369C889.038 100.685 891.72 108.274 891.72 119.405V225.655Z" fill="#f2f7f9"/>
<path d="M195.098 185.828C165.633 164.201 134.166 129.599 126.208 91.4705C125.608 99.9284 125.611 108.406 127.125 117.212C129.833 133.004 135.882 147.982 144.362 161.493C153.044 175.323 164.182 186.928 176.274 197.717C187.642 207.859 198.344 218.268 200.771 234.063C213.239 237.075 224.867 242.937 233.855 252.704C242.882 262.51 247.474 274.67 247.382 287.009C251.832 276.248 253.697 264.644 250.316 250.97C242.954 221.207 218.334 202.882 195.098 185.828Z" fill="#f2f7f9"/>
<path d="M132.109 153.248C122.634 134.109 115.959 108.227 120.207 85.7495C112.868 106.706 110.33 129.289 112.966 151.539C116.43 180.778 129.597 218.986 157.346 233.149C162.096 232.533 166.802 231.987 171.416 231.709C178.698 231.271 186.151 231.527 193.442 232.638C189.109 214.16 171.401 203.677 158.891 190.763C148.2 179.721 138.958 167.079 132.109 153.248Z" fill="#f2f7f9"/>
<path d="M95.2773 36.8795C90.9351 24.3267 83.8237 12.946 74.9428 3.13357C74.02 2.11419 73.0713 1.06698 72.0981 0C73.0904 1.53 74.0513 3.06309 74.9741 4.56774C81.2068 14.7152 86.4086 25.5915 89.715 37.081C96.3579 60.1645 92.6733 83.0954 88.0431 106.16C82.7271 132.614 78.6815 159.196 89.952 184.797C99.4525 206.38 116.99 221.839 138.741 228.962C119.161 210.394 109.225 180.047 105.973 154.503C104.171 140.347 104.329 126.089 106.339 112.136C105.435 86.6697 103.779 61.4392 95.2773 36.8795Z" fill="#f2f7f9"/>
<path d="M62.4078 81.3706C54.5633 101.868 45.9415 122.69 44.5825 144.883C43.8398 157.059 45.2272 169.596 49.7846 180.964C51.0425 184.107 52.5754 187.014 54.2757 189.786C67.2971 202.511 77.8499 217.965 93.1692 227.851C106.639 236.542 121.725 237.088 136.987 235.666C96.1969 223.321 72.6352 181.542 75.992 138.948C77.9733 113.839 87.0532 89.6753 87.1797 64.362C87.2779 44.3348 80.5147 26.9775 71.0106 10.7545C72.3 14.8178 73.302 18.9794 73.9154 23.2405C76.8522 43.6313 69.6678 62.403 62.5159 81.0881L62.4078 81.3706Z" fill="#f2f7f9"/>
<path d="M147.033 339.227C170.121 341.431 196.268 339.438 216.233 326.441C238.625 311.866 248.309 282.387 230.278 260.185C195.538 217.406 139.853 257.326 97.4609 238.761C76.7721 229.7 65.0816 209.197 48.8552 194.5C37.411 184.139 23.9346 176.668 9.51314 172.084C13.783 174.307 17.9391 176.783 21.9308 179.587C36.3997 189.741 46.45 203.086 56.7976 217.239C69.7903 235.008 86.4684 246.696 108.295 250.219C126.86 253.221 147.675 250.18 165.089 258.463C177.115 264.184 186.695 277.944 181.866 291.657C176.97 305.551 160.529 312.971 147.264 315.504C112.23 322.199 80.372 300.872 60.0182 273.734C46.3616 255.525 37.4015 234.811 27.566 214.406C22.3511 203.581 15.8721 194.331 6.7572 186.531C4.57958 184.666 2.3135 182.932 0 181.264C19.4814 204.463 28.2803 236.73 40.856 264.439C60.7546 308.285 99.6259 334.701 147.033 339.227Z" fill="#f2f7f9"/>
<path d="M25.334 189.754C17.6508 183.226 9.13007 178.051 0.0688477 174.065C5.64084 177.703 10.8841 181.862 15.5902 186.324C28.1469 198.232 34.2909 213.81 41.7055 229.151C56.9234 260.62 77.5457 294.037 112.324 305.619C128.86 311.126 148.36 310.681 163.487 301.294C172.377 295.774 178.91 286.157 173.221 275.76C167.655 265.587 155.847 262.399 145.263 261.051C128.503 258.92 111.458 259.745 95.1117 254.775C81.6006 250.664 69.3316 242.777 59.8816 232.189C47.6125 218.451 39.5532 201.832 25.334 189.754Z" fill="#f2f7f9"/>
<path d="M225.79 328.776C235.954 337.339 252.651 330.887 259.679 320.695C267.154 309.864 264.534 295.429 255.179 287.01C251.684 296.768 246.124 305.941 239.294 313.799C235.599 319.644 231.004 324.604 225.79 328.776Z" fill="#f2f7f9"/>
</svg>
