<svg width="141" height="193" viewBox="0 0 141 193" fill="none" xmlns="http://www.w3.org/2000/svg">
  <g opacity="0.1">
    <path
      d="M140.5 172.345V192.75L123.175 181.489L77.0712 94.8637C83.4237 92.8425 89.1987 89.57 94.2037 85.2387L140.5 172.345ZM92.375 48.375C92.375 56.0331 89.3328 63.3776 83.9177 68.7927C78.5026 74.2078 71.1581 77.25 63.5 77.25H59.265L3.825 181.489L-13.5 192.75V172.345L42.2287 67.625C31.6412 55.7862 32.6037 37.4988 44.5387 26.815C49.7362 22.195 56.4737 19.5 63.5 19.5V0.25C66.0527 0.25 68.5009 1.26406 70.3059 3.0691C72.1109 4.87413 73.125 7.32229 73.125 9.875V21.2325C84.675 25.275 92.375 36.1513 92.375 48.375ZM73.125 48.375C73.125 45.8223 72.1109 43.3741 70.3059 41.5691C68.5009 39.7641 66.0527 38.75 63.5 38.75C60.9473 38.75 58.4991 39.7641 56.6941 41.5691C54.8891 43.3741 53.875 45.8223 53.875 48.375C53.875 50.9277 54.8891 53.3759 56.6941 55.1809C58.4991 56.9859 60.9473 58 63.5 58C66.0527 58 68.5009 56.9859 70.3059 55.1809C72.1109 53.3759 73.125 50.9277 73.125 48.375Z"
      fill="#FEC476" />
  </g>
</svg>