<svg width="140" height="216" viewBox="0 0 140 216" fill="none" xmlns="http://www.w3.org/2000/svg">
<g opacity="0.1">
<path d="M77 189V171C77 161.452 73.2072 152.295 66.4558 145.544C59.7045 138.793 50.5478 135 41 135H-31C-40.5478 135 -49.7045 138.793 -56.4558 145.544C-63.2072 152.295 -67 161.452 -67 171V189" stroke="#86AFFF" stroke-width="12" stroke-linecap="round" stroke-linejoin="round"/>
<path d="M5 99C24.8823 99 41 82.8823 41 63C41 43.1177 24.8823 27 5 27C-14.8823 27 -31 43.1177 -31 63C-31 82.8823 -14.8823 99 5 99Z" stroke="#86AFFF" stroke-width="12" stroke-linecap="round" stroke-linejoin="round"/>
<path d="M131 188.999V170.999C130.994 163.022 128.339 155.274 123.452 148.97C118.565 142.666 111.723 138.163 104 136.169" stroke="#86AFFF" stroke-width="12" stroke-linecap="round" stroke-linejoin="round"/>
<path d="M68 28.1689C75.7437 30.1517 82.6073 34.6553 87.5087 40.9697C92.4102 47.2842 95.0706 55.0504 95.0706 63.0439C95.0706 71.0375 92.4102 78.8037 87.5087 85.1181C82.6073 91.4326 75.7437 95.9362 68 97.9189" stroke="#86AFFF" stroke-width="12" stroke-linecap="round" stroke-linejoin="round"/>
</g>
</svg>
